<svg width="20" height="20" viewBox="0 0 20 20" fill="none" xmlns="http://www.w3.org/2000/svg">
<g clip-path="url(#clip0_217_1698)">
<path d="M10 0C8.02219 0 6.08879 0.58649 4.4443 1.6853C2.79981 2.78412 1.51809 4.3459 0.761209 6.17317C0.0043329 8.00043 -0.193701 10.0111 0.192152 11.9509C0.578004 13.8907 1.53041 15.6725 2.92894 17.0711C4.32746 18.4696 6.10929 19.422 8.0491 19.8079C9.98891 20.1937 11.9996 19.9957 13.8268 19.2388C15.6541 18.4819 17.2159 17.2002 18.3147 15.5557C19.4135 13.9112 20 11.9778 20 10C19.9971 7.34872 18.9426 4.80684 17.0679 2.9321C15.1932 1.05736 12.6513 0.00286757 10 0V0ZM10 18.3333C8.35183 18.3333 6.74066 17.8446 5.37025 16.9289C3.99984 16.0132 2.93174 14.7117 2.30101 13.189C1.67028 11.6663 1.50525 9.99076 1.82679 8.37425C2.14834 6.75774 2.94201 5.27288 4.10745 4.10744C5.27289 2.94201 6.75774 2.14833 8.37425 1.82679C9.99076 1.50525 11.6663 1.67027 13.189 2.301C14.7118 2.93173 16.0132 3.99984 16.9289 5.37025C17.8446 6.74066 18.3333 8.35182 18.3333 10C18.3309 12.2094 17.4522 14.3276 15.8899 15.8899C14.3276 17.4522 12.2094 18.3309 10 18.3333V18.3333Z" fill="#F0F0FF"/>
<path d="M9.99991 5C9.7789 5 9.56694 5.0878 9.41066 5.24408C9.25438 5.40036 9.16658 5.61232 9.16658 5.83333V9.43749L6.35741 11.1975C6.16955 11.3148 6.03601 11.502 5.98615 11.7179C5.9363 11.9337 5.97422 12.1605 6.09158 12.3483C6.20894 12.5362 6.39612 12.6697 6.61194 12.7196C6.82777 12.7694 7.05455 12.7315 7.24241 12.6142L10.4424 10.6142C10.5633 10.5384 10.6627 10.4329 10.7312 10.3077C10.7996 10.1825 10.8348 10.0418 10.8332 9.89916V5.83333C10.8332 5.61232 10.7455 5.40036 10.5892 5.24408C10.4329 5.0878 10.2209 5 9.99991 5Z" fill="#F0F0FF"/>
</g>
<defs>
<clipPath id="clip0_217_1698">
<rect width="20" height="20" fill="white"/>
</clipPath>
</defs>
</svg>
