<svg width="20" height="20" viewBox="0 0 20 20" fill="none" xmlns="http://www.w3.org/2000/svg">
<path d="M15.8333 5.83333L14.7141 6.9525M14.7141 6.9525C13.4639 5.70223 11.7681 4.99983 9.99997 4.99983C8.23181 4.99983 6.53608 5.70223 5.2858 6.9525C4.03553 8.20277 3.33313 9.89851 3.33313 11.6667C3.33313 13.4348 4.03553 15.1306 5.2858 16.3808C6.53608 17.6311 8.23181 18.3335 9.99997 18.3335C11.7681 18.3335 13.4639 17.6311 14.7141 16.3808C15.9644 15.1306 16.6668 13.4348 16.6668 11.6667C16.6668 9.89851 15.9644 8.20277 14.7141 6.9525ZM9.99997 8.33333V11.6667M7.49997 2.5H12.5" stroke="#F0F0FF" stroke-width="1.5" stroke-linecap="round" stroke-linejoin="round"/>
</svg>
