<svg width="20" height="20" viewBox="0 0 20 20" fill="none" xmlns="http://www.w3.org/2000/svg">
<g clip-path="url(#clip0_217_1697)">
<path d="M10 3.33333C10.9205 3.33333 11.6667 2.58714 11.6667 1.66667C11.6667 0.746192 10.9205 0 10 0C9.07956 0 8.33337 0.746192 8.33337 1.66667C8.33337 2.58714 9.07956 3.33333 10 3.33333Z" fill="#F0F0FF"/>
<path d="M10 11.6669C10.9205 11.6669 11.6667 10.9208 11.6667 10.0003C11.6667 9.07981 10.9205 8.33362 10 8.33362C9.07956 8.33362 8.33337 9.07981 8.33337 10.0003C8.33337 10.9208 9.07956 11.6669 10 11.6669Z" fill="#F0F0FF"/>
<path d="M10 19.9997C10.9205 19.9997 11.6667 19.2535 11.6667 18.3331C11.6667 17.4126 10.9205 16.6664 10 16.6664C9.07956 16.6664 8.33337 17.4126 8.33337 18.3331C8.33337 19.2535 9.07956 19.9997 10 19.9997Z" fill="#F0F0FF"/>
</g>
<defs>
<clipPath id="clip0_217_1697">
<rect width="20" height="20" fill="white"/>
</clipPath>
</defs>
</svg>
