<svg width="20" height="20" viewBox="0 0 20 20" fill="none" xmlns="http://www.w3.org/2000/svg">
<g clip-path="url(#clip0_217_1696)">
<path d="M15.8333 0H4.16667C3.062 0.00132321 2.00296 0.440735 1.22185 1.22185C0.440735 2.00296 0.00132321 3.062 0 4.16667L0 15.8333C0.00132321 16.938 0.440735 17.997 1.22185 18.7782C2.00296 19.5593 3.062 19.9987 4.16667 20H15.8333C16.938 19.9987 17.997 19.5593 18.7782 18.7782C19.5593 17.997 19.9987 16.938 20 15.8333V4.16667C19.9987 3.062 19.5593 2.00296 18.7782 1.22185C17.997 0.440735 16.938 0.00132321 15.8333 0V0ZM18.3333 15.8333C18.3333 16.4964 18.0699 17.1323 17.6011 17.6011C17.1323 18.0699 16.4964 18.3333 15.8333 18.3333H4.16667C3.50363 18.3333 2.86774 18.0699 2.3989 17.6011C1.93006 17.1323 1.66667 16.4964 1.66667 15.8333V4.16667C1.66667 3.50363 1.93006 2.86774 2.3989 2.3989C2.86774 1.93006 3.50363 1.66667 4.16667 1.66667H15.8333C16.4964 1.66667 17.1323 1.93006 17.6011 2.3989C18.0699 2.86774 18.3333 3.50363 18.3333 4.16667V15.8333Z" fill="#F0F0FF"/>
<path d="M15 4.99997C14.8437 4.84374 14.6318 4.75598 14.4108 4.75598C14.1898 4.75598 13.9779 4.84374 13.8216 4.99997L9.99997 8.82164L6.1783 4.99997C6.02203 4.84374 5.81011 4.75598 5.58914 4.75598C5.36817 4.75598 5.15624 4.84374 4.99997 4.99997C4.84374 5.15624 4.75598 5.36817 4.75598 5.58914C4.75598 5.81011 4.84374 6.02203 4.99997 6.1783L8.82164 9.99997L4.99997 13.8216C4.84374 13.9779 4.75598 14.1898 4.75598 14.4108C4.75598 14.6318 4.84374 14.8437 4.99997 15C5.15624 15.1562 5.36817 15.244 5.58914 15.244C5.81011 15.244 6.02203 15.1562 6.1783 15L9.99997 11.1783L13.8216 15C13.9779 15.1562 14.1898 15.244 14.4108 15.244C14.6318 15.244 14.8437 15.1562 15 15C15.1562 14.8437 15.244 14.6318 15.244 14.4108C15.244 14.1898 15.1562 13.9779 15 13.8216L11.1783 9.99997L15 6.1783C15.1562 6.02203 15.244 5.81011 15.244 5.58914C15.244 5.36817 15.1562 5.15624 15 4.99997V4.99997Z" fill="#F0F0FF"/>
</g>
<defs>
<clipPath id="clip0_217_1696">
<rect width="20" height="20" fill="white"/>
</clipPath>
</defs>
</svg>
