<svg width="20" height="20" viewBox="0 0 20 20" fill="none" xmlns="http://www.w3.org/2000/svg">
<g clip-path="url(#clip0_217_1694)">
<path d="M15.8333 0H4.16667C3.062 0.00132321 2.00296 0.440735 1.22185 1.22185C0.440735 2.00296 0.00132321 3.062 0 4.16667L0 15.8333C0.00132321 16.938 0.440735 17.997 1.22185 18.7782C2.00296 19.5593 3.062 19.9987 4.16667 20H15.8333C16.938 19.9987 17.997 19.5593 18.7782 18.7782C19.5593 17.997 19.9987 16.938 20 15.8333V4.16667C19.9987 3.062 19.5593 2.00296 18.7782 1.22185C17.997 0.440735 16.938 0.00132321 15.8333 0V0ZM18.3333 15.8333C18.3333 16.4964 18.0699 17.1323 17.6011 17.6011C17.1323 18.0699 16.4964 18.3333 15.8333 18.3333H4.16667C3.50363 18.3333 2.86774 18.0699 2.3989 17.6011C1.93006 17.1323 1.66667 16.4964 1.66667 15.8333V4.16667C1.66667 3.50363 1.93006 2.86774 2.3989 2.3989C2.86774 1.93006 3.50363 1.66667 4.16667 1.66667H15.8333C16.4964 1.66667 17.1323 1.93006 17.6011 2.3989C18.0699 2.86774 18.3333 3.50363 18.3333 4.16667V15.8333Z" fill="#F0F0FF"/>
<path d="M7.77739 13.2659L4.51156 10C4.35528 9.84381 4.14336 9.75605 3.92239 9.75605C3.70142 9.75605 3.4895 9.84381 3.33322 10C3.177 10.1563 3.08923 10.3682 3.08923 10.5892C3.08923 10.8102 3.177 11.0221 3.33322 11.1784L6.59906 14.4442C6.75383 14.599 6.93759 14.7219 7.13984 14.8057C7.3421 14.8895 7.55888 14.9326 7.77781 14.9326C7.99673 14.9326 8.21351 14.8895 8.41577 14.8057C8.61802 14.7219 8.80178 14.599 8.95656 14.4442L16.6666 6.73421C16.8228 6.57794 16.9105 6.36601 16.9105 6.14504C16.9105 5.92407 16.8228 5.71215 16.6666 5.55588V5.55588C16.5103 5.39965 16.2984 5.31189 16.0774 5.31189C15.8564 5.31189 15.6445 5.39965 15.4882 5.55588L7.77739 13.2659Z" fill="#F0F0FF"/>
</g>
<defs>
<clipPath id="clip0_217_1694">
<rect width="20" height="20" fill="white"/>
</clipPath>
</defs>
</svg>
