<svg width="20" height="20" viewBox="0 0 20 20" fill="none" xmlns="http://www.w3.org/2000/svg">
<path d="M5.34174 7.5H14.6584C14.8232 7.50069 14.9841 7.55024 15.1208 7.64237C15.2574 7.73451 15.3637 7.8651 15.4261 8.01762C15.4886 8.17015 15.5044 8.33776 15.4716 8.49928C15.4387 8.66079 15.3588 8.80894 15.2417 8.925L10.5917 13.575C10.5143 13.6531 10.4221 13.7151 10.3206 13.7574C10.219 13.7997 10.1101 13.8215 10.0001 13.8215C9.89007 13.8215 9.78114 13.7997 9.67959 13.7574C9.57804 13.7151 9.48588 13.6531 9.40841 13.575L4.75841 8.925C4.64139 8.80894 4.56141 8.66079 4.52859 8.49928C4.49577 8.33776 4.51158 8.17015 4.57402 8.01762C4.63646 7.8651 4.74272 7.73451 4.87937 7.64237C5.01603 7.55024 5.17693 7.50069 5.34174 7.5Z" fill="#202020"/>
</svg>
