<svg width="20" height="20" viewBox="0 0 20 20" fill="none" xmlns="http://www.w3.org/2000/svg">
<path d="M15.8334 5.83333L14.7142 6.9525M14.7142 6.9525C13.4639 5.70223 11.7682 4.99983 10 4.99983C8.23187 4.99983 6.53614 5.70223 5.28586 6.9525C4.03559 8.20277 3.33319 9.89851 3.33319 11.6667C3.33319 13.4348 4.03559 15.1306 5.28586 16.3808C6.53614 17.6311 8.23187 18.3335 10 18.3335C11.7682 18.3335 13.4639 17.6311 14.7142 16.3808C15.9645 15.1306 16.6669 13.4348 16.6669 11.6667C16.6669 9.89851 15.9645 8.20277 14.7142 6.9525ZM10 8.33333V11.6667M7.50003 2.5H12.5" stroke="#0D0D25" stroke-width="1.5" stroke-linecap="round" stroke-linejoin="round"/>
</svg>
