<svg width="20" height="20" viewBox="0 0 20 20" fill="none" xmlns="http://www.w3.org/2000/svg">
<path d="M11.7794 7.69995C12.5284 7.16455 13.1407 6.45395 13.591 5.64785C13.6624 5.52005 13.6607 5.36405 13.5867 5.23785C13.5126 5.11165 13.3771 5.03455 13.2308 5.03455H6.76934C6.62314 5.03455 6.48784 5.11195 6.41384 5.23815C6.33974 5.36405 6.33784 5.52015 6.40914 5.64775C6.85944 6.45385 7.47163 7.16445 8.22073 7.69985C8.99453 8.25275 9.60354 8.50015 10 8.50015C10.3966 8.50015 11.0056 8.25285 11.7794 7.69995Z" fill="#F0F0FF"/>
<path d="M17.0479 18.4009H16.5403V17.2613C16.5403 14.8626 15.203 12.3698 12.9629 10.5934L12.2144 9.9998L12.9629 9.4064C15.203 7.6302 16.5403 5.1376 16.5403 2.7386V1.599H17.0479C17.4894 1.599 17.8474 1.241 17.8474 0.7995C17.8474 0.358 17.4894 0 17.0479 0H2.95219C2.51059 0 2.15259 0.358 2.15259 0.7995C2.15259 1.241 2.51059 1.599 2.95219 1.599H3.45979V2.5192C3.45979 5.242 4.77729 7.8199 6.98419 9.4154L7.79269 9.9997L6.98419 10.5844C4.77739 12.1796 3.45979 14.7576 3.45979 17.4805V18.4008H2.95219C2.51059 18.4008 2.15259 18.7588 2.15259 19.2004C2.15259 19.6419 2.51059 19.9999 2.95219 19.9999H17.0479C17.4894 19.9999 17.8474 19.6419 17.8474 19.2004C17.8474 18.7589 17.4894 18.4009 17.0479 18.4009ZM4.65909 17.4806C4.65909 15.1415 5.79089 12.9269 7.68689 11.5565L8.52979 10.9468C8.83269 10.7278 9.01359 10.3739 9.01359 9.9998C9.01359 9.6259 8.83269 9.2718 8.52959 9.0527L7.68669 8.4436C5.79089 7.0729 4.65899 4.8582 4.65899 2.5193V2.1844C4.65899 1.8611 4.92109 1.599 5.24429 1.599H14.7555C15.0787 1.599 15.3409 1.8611 15.3409 2.1844V2.7386C15.3409 4.7747 14.1733 6.916 12.2177 8.4665L11.4385 9.0842C11.1573 9.3074 10.9962 9.641 10.9962 9.9997C10.9962 10.3585 11.1573 10.6923 11.4388 10.9154L12.2176 11.5331C14.1734 13.0839 15.3409 15.2252 15.3409 17.2611V17.8155C15.3409 18.1387 15.0788 18.4008 14.7555 18.4008H5.24429C4.92109 18.4008 4.65899 18.1388 4.65899 17.8155L4.65909 17.4806Z" fill="#F0F0FF"/>
<path d="M14.1634 16.9696C13.2817 15.4234 11.0583 13.9185 10 13.9185C8.94175 13.9185 6.71835 15.4234 5.83675 16.9696C5.76395 17.0973 5.76455 17.2542 5.83855 17.3811C5.91235 17.5082 6.04825 17.586 6.19525 17.586H13.8049C13.9518 17.586 14.0875 17.5079 14.1614 17.3808C14.2352 17.254 14.236 17.0974 14.1634 16.9696Z" fill="#F0F0FF"/>
</svg>
