<svg width="20" height="20" viewBox="0 0 20 20" fill="none" xmlns="http://www.w3.org/2000/svg">
<g clip-path="url(#clip0_8_14866)">
<path d="M17.0479 18.401H16.5402V17.4809C16.5402 14.758 15.2227 12.1801 13.0158 10.5846L12.2075 10.0002L13.0158 9.4155C15.2226 7.8204 16.5402 5.2423 16.5402 2.5194V1.5991H17.0479C17.4894 1.5991 17.8474 1.2411 17.8474 0.7995C17.8474 0.358 17.4894 0 17.0479 0H2.95219C2.51059 0 2.15259 0.358 2.15259 0.7995C2.15259 1.2411 2.51059 1.5991 2.95219 1.5991H3.45959V2.7387C3.45959 5.1374 4.79699 7.6302 7.03709 9.4066L7.78559 10.0002L7.03709 10.5937C4.79699 12.3699 3.45959 14.8625 3.45959 17.2615V18.4011H2.95219C2.51059 18.4011 2.15259 18.7591 2.15259 19.2006C2.15259 19.6422 2.51059 20.0001 2.95219 20.0001H17.0478C17.4893 20.0001 17.8473 19.6422 17.8473 19.2006C17.8474 18.759 17.4894 18.401 17.0479 18.401ZM4.65899 17.2614C4.65899 15.2254 5.82669 13.0841 7.78219 11.5335L8.56139 10.9157C8.84259 10.6926 9.00369 10.3589 9.00369 10.0003C9.00369 9.6412 8.84229 9.3074 8.56119 9.0845L7.78229 8.4669C5.82659 6.9161 4.65899 4.7747 4.65899 2.7388V2.1844C4.65899 1.8612 4.92108 1.5991 5.24438 1.5991H14.7556C15.0788 1.5991 15.3409 1.8611 15.3409 2.1844V2.5195C15.3409 4.8586 14.2092 7.0732 12.3132 8.4436L11.4703 9.0533C11.1673 9.2723 10.9864 9.6263 10.9864 10.0003C10.9864 10.3743 11.1673 10.7283 11.4704 10.9475L12.3133 11.5567C14.2092 12.9274 15.3409 15.142 15.3409 17.481V17.8159C15.3409 18.1391 15.0789 18.4012 14.7556 18.4012H5.24438C4.92118 18.4012 4.65899 18.1392 4.65899 17.8159V17.2614Z" fill="#0D0D25"/>
</g>
<defs>
<clipPath id="clip0_8_14866">
<rect width="20" height="20" fill="white"/>
</clipPath>
</defs>
</svg>
