<svg width="29" height="20" viewBox="0 0 29 20" fill="none" xmlns="http://www.w3.org/2000/svg">
<path d="M14.6393 10.0009C14.6393 9.78585 14.5538 9.57961 14.4018 9.42755C14.2497 9.27549 14.0435 9.19006 13.8284 9.19006H13.0176C12.8025 9.19006 12.5963 9.27549 12.4442 9.42755C12.2922 9.57961 12.2067 9.78585 12.2067 10.0009C12.2067 10.216 12.2922 10.4222 12.4442 10.5743C12.5963 10.7263 12.8025 10.8117 13.0176 10.8117H13.8284C14.0435 10.8117 14.2497 10.7263 14.4018 10.5743C14.5538 10.4222 14.6393 10.216 14.6393 10.0009ZM15.1582 14.0551L14.5825 14.6308C14.4315 14.7827 14.3467 14.9883 14.3467 15.2025C14.3467 15.4167 14.4315 15.6222 14.5825 15.7741C14.7344 15.9251 14.9399 16.0099 15.1541 16.0099C15.3684 16.0099 15.5739 15.9251 15.7258 15.7741L16.3015 15.1984C16.4343 15.0433 16.5037 14.8438 16.4959 14.6397C16.488 14.4356 16.4034 14.2421 16.259 14.0976C16.1146 13.9532 15.921 13.8686 15.7169 13.8608C15.5128 13.8529 15.3133 13.9223 15.1582 14.0551ZM20.3152 4.32499C20.5302 4.32499 20.7365 4.23956 20.8885 4.0875C21.0406 3.93544 21.126 3.72919 21.126 3.51415V2.7033C21.126 2.48825 21.0406 2.28201 20.8885 2.12995C20.7365 1.97788 20.5302 1.89246 20.3152 1.89246C20.1001 1.89246 19.8939 1.97788 19.7418 2.12995C19.5898 2.28201 19.5043 2.48825 19.5043 2.7033V3.51415C19.5043 3.72919 19.5898 3.93544 19.7418 4.0875C19.8939 4.23956 20.1001 4.32499 20.3152 4.32499ZM24.9046 6.22237C25.1173 6.22147 25.3211 6.13702 25.4721 5.98722L26.0478 5.41152C26.1327 5.33883 26.2017 5.24938 26.2503 5.14878C26.299 5.04819 26.3264 4.93861 26.3307 4.82695C26.335 4.71528 26.3162 4.60392 26.2754 4.49987C26.2346 4.39582 26.1728 4.30132 26.0938 4.2223C26.0148 4.14328 25.9203 4.08144 25.8162 4.04068C25.7122 3.99991 25.6008 3.9811 25.4891 3.98541C25.3775 3.98972 25.2679 4.01707 25.1673 4.06574C25.0667 4.11441 24.9772 4.18335 24.9046 4.26823L24.3694 4.84393C24.2184 4.99585 24.1336 5.20136 24.1336 5.41558C24.1336 5.62979 24.2184 5.8353 24.3694 5.98722C24.5123 6.12941 24.7031 6.21325 24.9046 6.22237ZM15.1744 5.98722C15.3254 6.13702 15.5293 6.22147 15.742 6.22237C15.8487 6.22298 15.9545 6.20253 16.0533 6.16218C16.1521 6.12183 16.2419 6.06237 16.3177 5.98722C16.4687 5.8353 16.5535 5.62979 16.5535 5.41558C16.5535 5.20136 16.4687 4.99585 16.3177 4.84393L15.742 4.26823C15.6669 4.1921 15.5776 4.13149 15.4791 4.08988C15.3806 4.04827 15.2749 4.02647 15.168 4.02571C15.0611 4.02496 14.9551 4.04527 14.856 4.08549C14.7569 4.12571 14.6667 4.18505 14.5906 4.26012C14.5145 4.33519 14.4539 4.42452 14.4123 4.52301C14.3706 4.6215 14.3488 4.72723 14.3481 4.83414C14.3466 5.05007 14.4309 5.25776 14.5825 5.41152L15.1744 5.98722ZM27.6128 9.19006H26.8019C26.5869 9.19006 26.3806 9.27549 26.2286 9.42755C26.0765 9.57961 25.9911 9.78585 25.9911 10.0009C25.9911 10.216 26.0765 10.4222 26.2286 10.5743C26.3806 10.7263 26.5869 10.8117 26.8019 10.8117H27.6128C27.8278 10.8117 28.0341 10.7263 28.1861 10.5743C28.3382 10.4222 28.4236 10.216 28.4236 10.0009C28.4236 9.78585 28.3382 9.57961 28.1861 9.42755C28.0341 9.27549 27.8278 9.19006 27.6128 9.19006ZM25.4721 14.0551C25.3181 13.9694 25.1403 13.9363 24.9657 13.9607C24.7912 13.9851 24.6293 14.0657 24.5046 14.1904C24.38 14.315 24.2994 14.4769 24.275 14.6515C24.2506 14.826 24.2837 15.0038 24.3694 15.1579L24.9451 15.7336C25.097 15.8846 25.3025 15.9694 25.5167 15.9694C25.731 15.9694 25.9365 15.8846 26.0884 15.7336C26.2394 15.5817 26.3242 15.3761 26.3242 15.1619C26.3242 14.9477 26.2394 14.7422 26.0884 14.5903L25.4721 14.0551ZM20.3152 5.54126C19.4331 5.54126 18.5709 5.80281 17.8375 6.29284C17.1041 6.78287 16.5325 7.47938 16.195 8.29427C15.8575 9.10916 15.7691 10.0058 15.9412 10.8709C16.1133 11.736 16.538 12.5307 17.1617 13.1543C17.7854 13.778 18.5801 14.2028 19.4451 14.3749C20.3102 14.5469 21.2069 14.4586 22.0218 14.1211C22.8367 13.7835 23.5332 13.2119 24.0232 12.4785C24.5133 11.7452 24.7748 10.8829 24.7748 10.0009C24.7727 8.81879 24.3021 7.68571 23.4663 6.84982C22.6304 6.01394 21.4973 5.5434 20.3152 5.54126ZM20.3152 12.8389C19.7539 12.8389 19.2052 12.6724 18.7385 12.3606C18.2718 12.0487 17.908 11.6055 17.6932 11.0869C17.4784 10.5684 17.4222 9.99775 17.5317 9.44724C17.6412 8.89673 17.9115 8.39106 18.3084 7.99416C18.7053 7.59727 19.211 7.32698 19.7615 7.21748C20.312 7.10797 20.8826 7.16417 21.4012 7.37897C21.9198 7.59377 22.363 7.95752 22.6748 8.42422C22.9867 8.89092 23.1531 9.43961 23.1531 10.0009C23.1531 10.7536 22.8541 11.4754 22.3219 12.0076C21.7897 12.5399 21.0678 12.8389 20.3152 12.8389ZM20.3152 15.6768C20.1001 15.6768 19.8939 15.7622 19.7418 15.9143C19.5898 16.0664 19.5043 16.2726 19.5043 16.4877V17.2985C19.5043 17.5136 19.5898 17.7198 19.7418 17.8719C19.8939 18.0239 20.1001 18.1093 20.3152 18.1093C20.5302 18.1093 20.7365 18.0239 20.8885 17.8719C21.0406 17.7198 21.126 17.5136 21.126 17.2985V16.4877C21.126 16.2726 21.0406 16.0664 20.8885 15.9143C20.7365 15.7622 20.5302 15.6768 20.3152 15.6768Z" fill="#202020"/>
<path d="M9.72803 19.816C8.36642 19.7634 7.03099 19.4258 5.80791 18.8251C4.58483 18.2244 3.50128 17.374 2.6272 16.3287C1.74628 15.2819 1.09802 14.0597 0.725455 12.7433C0.352887 11.4269 0.264522 10.0463 0.466224 8.69314C0.788523 6.58754 1.78612 4.64364 3.30882 3.15408C4.83153 1.66453 6.79692 0.709948 8.90909 0.434062C10.2738 0.275953 11.6562 0.384869 12.9792 0.75474C13.3254 0.857822 13.6378 1.05154 13.884 1.31586C14.1302 1.58018 14.3014 1.90549 14.3797 2.25813C14.458 2.61077 14.4406 2.97792 14.3294 3.32161C14.2182 3.6653 14.0172 3.97302 13.7472 4.21295C9.92436 7.4484 10.0462 12.7094 13.9583 15.9136C14.2346 16.1479 14.4431 16.452 14.562 16.7943C14.6809 17.1365 14.706 17.5043 14.6345 17.8595C14.563 18.2147 14.3977 18.5442 14.1557 18.8138C13.9137 19.0834 13.6038 19.2832 13.2584 19.3924C12.1114 19.7196 10.9198 19.8626 9.72803 19.816ZM10.4655 1.9926C10.0107 1.97425 9.55504 1.99143 9.10283 2.04398C7.34431 2.27324 5.70784 3.0675 4.43976 4.30723C3.17168 5.54695 2.3406 7.16504 2.07163 8.91792C1.90221 10.0475 1.97516 11.2003 2.28561 12.2995C2.59607 13.3987 3.13693 14.4193 3.87224 15.2934C4.95007 16.5349 6.36503 17.437 7.94546 17.8901C9.52589 18.3433 11.2039 18.328 12.7758 17.8462C12.8436 17.8237 12.9043 17.7837 12.9516 17.7302C12.999 17.6766 13.0314 17.6115 13.0455 17.5415C13.0596 17.4714 13.0549 17.3989 13.032 17.3312C13.009 17.2635 12.9686 17.2031 12.9147 17.1561C8.24829 13.3456 8.11269 6.84254 12.6827 2.98872C12.7352 2.94357 12.7741 2.88469 12.7949 2.81868C12.8158 2.75268 12.8178 2.68216 12.8008 2.61507C12.7866 2.544 12.7533 2.47817 12.7044 2.42468C12.6555 2.3712 12.5929 2.3321 12.5234 2.31162C11.8528 2.12272 11.1618 2.0156 10.4655 1.9926Z" fill="#202020"/>
</svg>
