<svg width="20" height="20" viewBox="0 0 20 20" fill="none" xmlns="http://www.w3.org/2000/svg">
<g clip-path="url(#clip0_8_14836)">
<path d="M15.8333 0H4.16667C3.062 0.00132321 2.00296 0.440735 1.22185 1.22185C0.440735 2.00296 0.00132321 3.062 0 4.16667L0 15.8333C0.00132321 16.938 0.440735 17.997 1.22185 18.7782C2.00296 19.5593 3.062 19.9987 4.16667 20H15.8333C16.938 19.9987 17.997 19.5593 18.7782 18.7782C19.5593 17.997 19.9987 16.938 20 15.8333V4.16667C19.9987 3.062 19.5593 2.00296 18.7782 1.22185C17.997 0.440735 16.938 0.00132321 15.8333 0V0ZM18.3333 15.8333C18.3333 16.4964 18.0699 17.1323 17.6011 17.6011C17.1323 18.0699 16.4964 18.3333 15.8333 18.3333H4.16667C3.50363 18.3333 2.86774 18.0699 2.3989 17.6011C1.93006 17.1323 1.66667 16.4964 1.66667 15.8333V4.16667C1.66667 3.50363 1.93006 2.86774 2.3989 2.3989C2.86774 1.93006 3.50363 1.66667 4.16667 1.66667H15.8333C16.4964 1.66667 17.1323 1.93006 17.6011 2.3989C18.0699 2.86774 18.3333 3.50363 18.3333 4.16667V15.8333Z" fill="#202020"/>
<path d="M7.77733 13.2659L4.51149 10C4.35522 9.84381 4.1433 9.75605 3.92233 9.75605C3.70136 9.75605 3.48943 9.84381 3.33316 10C3.17694 10.1563 3.08917 10.3682 3.08917 10.5892C3.08917 10.8102 3.17694 11.0221 3.33316 11.1784L6.59899 14.4442C6.75377 14.599 6.93753 14.7219 7.13978 14.8057C7.34204 14.8895 7.55882 14.9326 7.77774 14.9326C7.99667 14.9326 8.21345 14.8895 8.41571 14.8057C8.61796 14.7219 8.80172 14.599 8.95649 14.4442L16.6665 6.73421C16.8227 6.57794 16.9105 6.36601 16.9105 6.14504C16.9105 5.92407 16.8227 5.71215 16.6665 5.55588C16.5102 5.39965 16.2983 5.31189 16.0773 5.31189C15.8564 5.31189 15.6444 5.39965 15.4882 5.55588L7.77733 13.2659Z" fill="#202020"/>
</g>
<defs>
<clipPath id="clip0_8_14836">
<rect width="20" height="20" fill="white"/>
</clipPath>
</defs>
</svg>
