<svg width="20" height="20" viewBox="0 0 20 20" fill="none" xmlns="http://www.w3.org/2000/svg">
<path fill-rule="evenodd" clip-rule="evenodd" d="M6.66667 2.49996C6.66667 2.27895 6.75446 2.06698 6.91074 1.9107C7.06702 1.75442 7.27899 1.66663 7.5 1.66663H12.5C12.721 1.66663 12.933 1.75442 13.0893 1.9107C13.2455 2.06698 13.3333 2.27895 13.3333 2.49996C13.3333 2.72097 13.2455 2.93293 13.0893 3.08921C12.933 3.2455 12.721 3.33329 12.5 3.33329H7.5C7.27899 3.33329 7.06702 3.2455 6.91074 3.08921C6.75446 2.93293 6.66667 2.72097 6.66667 2.49996ZM2.5 11.6666C2.49988 10.2542 2.89859 8.87046 3.65024 7.67466C4.4019 6.47886 5.47594 5.51961 6.74875 4.90733C8.02155 4.29504 9.44138 4.05461 10.8448 4.21371C12.2482 4.37281 13.5782 4.92496 14.6817 5.80663L15.2442 5.24413C15.321 5.16453 15.413 5.10105 15.5147 5.05737C15.6163 5.0137 15.7257 4.99071 15.8363 4.98975C15.947 4.98879 16.0567 5.00987 16.1591 5.05177C16.2615 5.09368 16.3546 5.15555 16.4328 5.2338C16.5111 5.31204 16.573 5.40508 16.6149 5.5075C16.6568 5.60991 16.6778 5.71964 16.6769 5.83029C16.6759 5.94094 16.6529 6.05029 16.6093 6.15196C16.5656 6.25363 16.5021 6.34559 16.4225 6.42246L15.86 6.98496C16.6077 7.92101 17.1203 9.02256 17.3548 10.1974C17.5894 11.3722 17.5391 12.5862 17.2082 13.7376C16.8772 14.889 16.2753 15.9444 15.4527 16.8153C14.6302 17.6863 13.6109 18.3476 12.4803 18.7438C11.3497 19.14 10.1406 19.2596 8.9543 19.0926C7.76798 18.9255 6.63894 18.4767 5.66168 17.7837C4.68443 17.0908 3.8874 16.1737 3.33733 15.1095C2.78725 14.0452 2.50013 12.8646 2.5 11.6666ZM10.8333 8.33329C10.8333 8.11228 10.7455 7.90032 10.5893 7.74404C10.433 7.58776 10.221 7.49996 10 7.49996C9.77899 7.49996 9.56702 7.58776 9.41074 7.74404C9.25446 7.90032 9.16667 8.11228 9.16667 8.33329V11.6666C9.16667 11.8876 9.25446 12.0996 9.41074 12.2559C9.56702 12.4122 9.77899 12.5 10 12.5C10.221 12.5 10.433 12.4122 10.5893 12.2559C10.7455 12.0996 10.8333 11.8876 10.8333 11.6666V8.33329Z" fill="#0D0D25"/>
</svg>
