<svg width="20" height="20" viewBox="0 0 20 20" fill="none" xmlns="http://www.w3.org/2000/svg">
<g clip-path="url(#clip0_217_1700)">
<path d="M10.8334 1.70917V0.833333C10.8334 0.61232 10.7456 0.400358 10.5893 0.244078C10.433 0.0877974 10.2211 0 10 0C9.77903 0 9.56707 0.0877974 9.41079 0.244078C9.25451 0.400358 9.16671 0.61232 9.16671 0.833333V1.70917C7.48902 1.85957 5.8854 2.47017 4.53253 3.47368C3.17967 4.4772 2.13007 5.83468 1.49937 7.39657C0.868664 8.95845 0.681343 10.6641 0.95804 12.3257C1.23474 13.9872 1.96471 15.5401 3.06754 16.8133C2.63202 17.0288 2.26807 17.3656 2.01953 17.7831C1.771 18.2006 1.64847 18.6811 1.66671 19.1667C1.66671 19.3877 1.75451 19.5996 1.91079 19.7559C2.06707 19.9122 2.27903 20 2.50004 20C2.72106 20 2.93302 19.9122 3.0893 19.7559C3.24558 19.5996 3.33338 19.3877 3.33338 19.1667C3.32645 18.9098 3.41867 18.6601 3.59089 18.4694C3.76312 18.2788 4.00214 18.1617 4.25838 18.1425C4.3157 18.1316 4.37161 18.1143 4.42505 18.0908C6.02132 19.3289 7.98407 20.0009 10.0042 20.0009C12.0243 20.0009 13.9871 19.3289 15.5834 18.0908C15.6322 18.1133 15.6829 18.1312 15.735 18.1442C15.9922 18.1617 16.2326 18.2778 16.4062 18.4683C16.5798 18.6588 16.6731 18.909 16.6667 19.1667C16.6667 19.3877 16.7545 19.5996 16.9108 19.7559C17.0671 19.9122 17.279 20 17.5 20C17.7211 20 17.933 19.9122 18.0893 19.7559C18.2456 19.5996 18.3334 19.3877 18.3334 19.1667C18.3516 18.6811 18.2291 18.2006 17.9806 17.7831C17.732 17.3656 17.3681 17.0288 16.9325 16.8133C18.0354 15.5401 18.7654 13.9872 19.042 12.3257C19.3187 10.6641 19.1314 8.95845 18.5007 7.39657C17.87 5.83468 16.8204 4.4772 15.4676 3.47368C14.1147 2.47017 12.5111 1.85957 10.8334 1.70917ZM2.50004 10.8333C2.50004 9.34997 2.93991 7.89993 3.76402 6.66656C4.58813 5.43319 5.75947 4.47189 7.12992 3.90424C8.50037 3.33658 10.0084 3.18805 11.4632 3.47744C12.9181 3.76683 14.2545 4.48114 15.3033 5.53003C16.3522 6.57893 17.0665 7.9153 17.3559 9.37016C17.6453 10.825 17.4968 12.333 16.9291 13.7035C16.3615 15.0739 15.4002 16.2452 14.1668 17.0694C12.9335 17.8935 11.4834 18.3333 10 18.3333C8.01167 18.3309 6.10542 17.54 4.69942 16.134C3.29343 14.728 2.50247 12.8217 2.50004 10.8333Z" fill="#F0F0FF"/>
<path d="M16.0123 -3.8464e-05C15.7913 -3.8464e-05 15.5793 0.0877589 15.423 0.244039C15.2668 0.40032 15.179 0.612281 15.179 0.833295C15.179 1.05431 15.2668 1.26627 15.423 1.42255C15.5793 1.57883 15.7913 1.66663 16.0123 1.66663C16.3029 1.64454 16.5949 1.68153 16.8708 1.77536C17.1467 1.8692 17.4008 2.01794 17.6177 2.21261C17.8345 2.40729 18.0097 2.64387 18.1327 2.90808C18.2557 3.1723 18.3238 3.45868 18.3331 3.74996C18.3331 3.97098 18.4209 4.18294 18.5772 4.33922C18.7335 4.4955 18.9454 4.58329 19.1665 4.58329C19.3875 4.58329 19.5994 4.4955 19.7557 4.33922C19.912 4.18294 19.9998 3.97098 19.9998 3.74996C19.9891 3.24037 19.8769 2.73803 19.6698 2.27232C19.4627 1.80661 19.1647 1.38688 18.7934 1.0377C18.4221 0.688514 17.9849 0.416884 17.5074 0.238698C17.0298 0.0605129 16.5216 -0.0206488 16.0123 -3.8464e-05V-3.8464e-05Z" fill="#F0F0FF"/>
<path d="M1.66667 3.74996C1.67596 3.45868 1.74414 3.1723 1.8671 2.90808C1.99006 2.64387 2.16526 2.40729 2.38213 2.21261C2.59899 2.01794 2.85304 1.8692 3.12895 1.77536C3.40486 1.68153 3.69691 1.64454 3.9875 1.66663C4.20851 1.66663 4.42048 1.57883 4.57676 1.42255C4.73304 1.26627 4.82083 1.05431 4.82083 0.833295C4.82083 0.612281 4.73304 0.40032 4.57676 0.244039C4.42048 0.0877589 4.20851 -3.8464e-05 3.9875 -3.8464e-05C3.47822 -0.0206488 2.96994 0.0605129 2.4924 0.238698C2.01486 0.416884 1.57765 0.688514 1.20636 1.0377C0.835056 1.38688 0.537122 1.80661 0.329984 2.27232C0.122846 2.73803 0.0106635 3.24037 0 3.74996C0 3.97098 0.0877974 4.18294 0.244078 4.33922C0.400358 4.4955 0.61232 4.58329 0.833333 4.58329C1.05435 4.58329 1.26631 4.4955 1.42259 4.33922C1.57887 4.18294 1.66667 3.97098 1.66667 3.74996Z" fill="#F0F0FF"/>
<path d="M10.8334 9.655V5.83333C10.8334 5.61232 10.7456 5.40036 10.5893 5.24408C10.4331 5.0878 10.2211 5 10.0001 5C9.77907 5 9.56711 5.0878 9.41083 5.24408C9.25455 5.40036 9.16675 5.61232 9.16675 5.83333V10C9.1668 10.221 9.25462 10.4329 9.41091 10.5892L11.9109 13.0892C12.0681 13.241 12.2786 13.325 12.4971 13.3231C12.7156 13.3212 12.9246 13.2335 13.0791 13.079C13.2336 12.9245 13.3212 12.7155 13.3231 12.497C13.325 12.2785 13.241 12.068 13.0892 11.9108L10.8334 9.655Z" fill="#F0F0FF"/>
</g>
<defs>
<clipPath id="clip0_217_1700">
<rect width="20" height="20" fill="white"/>
</clipPath>
</defs>
</svg>
