<svg width="20" height="20" viewBox="0 0 20 20" fill="none" xmlns="http://www.w3.org/2000/svg">
<g clip-path="url(#clip0_8_14850)">
<path d="M10 0C8.02219 0 6.08879 0.58649 4.4443 1.6853C2.79981 2.78412 1.51809 4.3459 0.761209 6.17317C0.0043329 8.00043 -0.193701 10.0111 0.192152 11.9509C0.578004 13.8907 1.53041 15.6725 2.92894 17.0711C4.32746 18.4696 6.10929 19.422 8.0491 19.8079C9.98891 20.1937 11.9996 19.9957 13.8268 19.2388C15.6541 18.4819 17.2159 17.2002 18.3147 15.5557C19.4135 13.9112 20 11.9778 20 10C19.9971 7.34871 18.9426 4.80684 17.0679 2.9321C15.1932 1.05736 12.6513 0.00286757 10 0V0ZM10 18.3333C8.35183 18.3333 6.74066 17.8446 5.37025 16.9289C3.99984 16.0132 2.93174 14.7117 2.30101 13.189C1.67028 11.6663 1.50525 9.99076 1.82679 8.37425C2.14834 6.75774 2.94201 5.27288 4.10745 4.10744C5.27289 2.94201 6.75774 2.14833 8.37425 1.82679C9.99076 1.50525 11.6663 1.67027 13.189 2.301C14.7118 2.93173 16.0132 3.99984 16.9289 5.37025C17.8446 6.74066 18.3333 8.35182 18.3333 10C18.3309 12.2094 17.4522 14.3276 15.8899 15.8899C14.3276 17.4522 12.2094 18.3309 10 18.3333Z" fill="#202020"/>
<path d="M9.99985 5C9.77884 5 9.56688 5.0878 9.4106 5.24408C9.25432 5.40036 9.16652 5.61232 9.16652 5.83333V9.43749L6.35735 11.1975C6.16949 11.3148 6.03594 11.502 5.98609 11.7179C5.93624 11.9337 5.97416 12.1605 6.09152 12.3483C6.20888 12.5362 6.39606 12.6697 6.61188 12.7196C6.8277 12.7694 7.05449 12.7315 7.24235 12.6142L10.4424 10.6142C10.5633 10.5384 10.6627 10.4329 10.7311 10.3077C10.7996 10.1825 10.8347 10.0418 10.8332 9.89916V5.83333C10.8332 5.61232 10.7454 5.40036 10.5891 5.24408C10.4328 5.0878 10.2209 5 9.99985 5Z" fill="#202020"/>
</g>
<defs>
<clipPath id="clip0_8_14850">
<rect width="20" height="20" fill="white"/>
</clipPath>
</defs>
</svg>
